<?xml version="1.0" encoding="UTF-8" standalone="no"?>
<!-- Generator: Adobe Illustrator 27.2.0, SVG Export Plug-In . SVG Version: 6.00 Build 0)  -->

<svg
   version="1.1"
   id="레이어_1"
   x="0px"
   y="0px"
   viewBox="0 0 344.75879 197.69357"
   enable-background="new 0 0 720 349.034"
   xml:space="preserve"
   sodipodi:docname="New_Super_Mario_Bros._logo (1).svg"
   width="344.75879"
   height="197.69357"
   inkscape:version="1.1.2 (0a00cf5339, 2022-02-04)"
   xmlns:inkscape="http://www.inkscape.org/namespaces/inkscape"
   xmlns:sodipodi="http://sodipodi.sourceforge.net/DTD/sodipodi-0.dtd"
   xmlns="http://www.w3.org/2000/svg"
   xmlns:svg="http://www.w3.org/2000/svg"><defs
   id="defs47"><rect
     x="198.672"
     y="158.36301"
     width="372.11133"
     height="127.8081"
     id="rect2711" /><rect
     x="198.672"
     y="158.36301"
     width="372.11133"
     height="127.8081"
     id="rect2711-3" /><rect
     x="198.672"
     y="158.36301"
     width="372.11133"
     height="127.8081"
     id="rect4090" /></defs><sodipodi:namedview
   id="namedview45"
   pagecolor="#ffffff"
   bordercolor="#666666"
   borderopacity="1.0"
   inkscape:pageshadow="2"
   inkscape:pageopacity="0.0"
   inkscape:pagecheckerboard="true"
   showgrid="false"
   fit-margin-top="0"
   fit-margin-left="0"
   fit-margin-right="0"
   fit-margin-bottom="0"
   inkscape:zoom="1.8916667"
   inkscape:cx="261.40969"
   inkscape:cy="103.0837"
   inkscape:window-width="1920"
   inkscape:window-height="1028"
   inkscape:window-x="0"
   inkscape:window-y="184"
   inkscape:window-maximized="1"
   inkscape:current-layer="레이어_1" />






<g
   id="g14"
   transform="translate(-169.46268,-71.469896)">
</g>
<g
   id="g16"
   transform="translate(-169.46268,-71.469896)">
</g>
<g
   id="g18"
   transform="translate(-169.46268,-71.469896)">
</g>
<g
   id="g20"
   transform="translate(-169.46268,-71.469896)">
</g>
<g
   id="g22"
   transform="translate(-169.46268,-71.469896)">
</g>
<g
   id="g24"
   transform="translate(-169.46268,-71.469896)">
</g>
<g
   id="g26"
   transform="translate(-169.46268,-71.469896)">
</g>
<g
   id="g28"
   transform="translate(-169.46268,-71.469896)">
</g>
<g
   id="g30"
   transform="translate(-169.46268,-71.469896)">
</g>
<g
   id="g32"
   transform="translate(-169.46268,-71.469896)">
</g>
<g
   id="g34"
   transform="translate(-169.46268,-71.469896)">
</g>
<g
   id="g36"
   transform="translate(-169.46268,-71.469896)">
</g>
<g
   id="g38"
   transform="translate(-169.46268,-71.469896)">
</g>
<g
   id="g40"
   transform="translate(-169.46268,-71.469896)">
</g>
<g
   id="g42"
   transform="translate(-169.46268,-71.469896)">
</g>
<g
   id="g4088"
   transform="translate(-1.8987537,-3.0519487)"
   style="fill:#000000;stroke:#000000;stroke-width:10;stroke-linecap:square;stroke-linejoin:round;stroke-miterlimit:4;stroke-dasharray:none;paint-order:markers fill stroke"><g
     id="g4082"
     transform="matrix(1.6851646,0,0,1.1107365,-55.772935,-10.709953)"
     style="fill:#000000;stroke:#000000;stroke-width:7.30926;stroke-linecap:square;stroke-linejoin:round;stroke-miterlimit:4;stroke-dasharray:none;paint-order:markers fill stroke"><path
       fill="#ffcb04"
       d="m 134.544,47.627 c 0,0 9.851,-17.103 12.561,-21.827 1.897,5.615 7.729,22.837 7.729,22.837 0,0 19.018,-10.538 23.138,-12.818 0.358,4.068 1.852,21.525 1.852,21.525 0,0 19.663,-7.712 26.68,-10.461 -3.938,6.162 -14.557,22.759 -14.557,22.759 0,0 18.839,2.413 23.776,3.03 -3.622,3.987 -16.815,18.4 -16.815,18.4 0,0 16.64,4.882 23.499,6.898 -7.459,2.707 -25.365,9.195 -25.365,9.195 0,0 8.946,13.701 11.39,17.44 -5.152,1.02 -25.488,5.032 -25.488,5.032 0,0 6.098,15.812 8.374,21.704 -6.354,-2.206 -24.225,-8.395 -24.225,-8.395 0,0 -6.365,17.345 -7.887,21.497 -3.5,-2.044 -19.502,-11.422 -19.502,-11.422 0,0 -10.415,18.078 -13.799,23.948 -1.897,-5.611 -7.722,-22.826 -7.722,-22.826 0,0 -19.018,10.521 -23.135,12.796 -0.358,-4.061 -1.848,-21.49 -1.848,-21.49 0,0 -19.649,7.691 -26.68,10.447 3.963,-6.172 14.581,-22.76 14.581,-22.76 0,0 -18.842,-2.413 -23.777,-3.044 3.623,-3.97 16.794,-18.383 16.794,-18.383 0,0 -16.622,-4.878 -23.489,-6.901 7.463,-2.704 25.376,-9.174 25.376,-9.174 0,0 -8.943,-13.714 -11.391,-17.456 5.144,-1.013 25.474,-5.046 25.474,-5.046 0,0 -6.091,-15.788 -8.367,-21.697 6.361,2.199 24.197,8.385 24.197,8.385 0,0 6.365,-17.345 7.89,-21.494 3.503,2.041 19.526,11.404 19.526,11.404 l 1.21,-2.103"
       id="path4078"
       style="fill:#000000;stroke:#000000;stroke-width:7.30926;stroke-linecap:square;stroke-linejoin:round;stroke-miterlimit:4;stroke-dasharray:none;paint-order:markers fill stroke" /><path
       fill="#ffffff"
       d="m 145.98,20.2 -9.753,16.952 c 0,0 -2.571,4.45 -3.998,6.94 -3.019,-1.771 -20.301,-11.874 -20.301,-11.874 0,0 -6.87,18.744 -8.213,22.384 -3.545,-1.241 -29.345,-10.17 -29.345,-10.17 0,0 8.522,22.076 9.995,25.919 -4.457,0.887 -26.677,5.278 -26.677,5.278 0,0 9.826,15.016 11.958,18.292 -4.517,1.638 -31.769,11.509 -31.769,11.509 0,0 24.888,7.305 29.163,8.564 -3.24,3.538 -17.555,19.204 -17.555,19.204 0,0 20.845,2.676 25.07,3.209 -2.563,3.998 -17.426,27.199 -17.426,27.199 0,0 28.381,-11.113 32.34,-12.663 0.312,3.595 1.918,22.262 1.918,22.262 0,0 20.701,-11.45 24.166,-13.365 1.115,3.275 9.093,26.88 9.093,26.88 0,0 14.101,-24.481 16.153,-28.034 3.012,1.764 20.301,11.864 20.301,11.864 0,0 6.877,-18.727 8.213,-22.374 3.542,1.22 29.359,10.187 29.359,10.187 0,0 -8.511,-22.079 -9.998,-25.926 4.468,-0.891 26.673,-5.278 26.673,-5.278 0,0 -9.802,-15.006 -11.944,-18.292 4.517,-1.631 31.751,-11.517 31.751,-11.517 0,0 -24.883,-7.301 -29.154,-8.56 3.244,-3.545 17.573,-19.221 17.573,-19.221 0,0 -20.855,-2.662 -25.078,-3.198 2.553,-3.994 17.419,-27.206 17.419,-27.206 0,0 -28.392,11.138 -32.337,12.684 -0.319,-3.605 -1.936,-22.286 -1.936,-22.286 0,0 -20.701,11.471 -24.176,13.382 -1.112,-3.303 -9.093,-26.901 -9.093,-26.901 L 145.98,20.2 m -11.436,27.427 c 0,0 9.851,-17.103 12.561,-21.827 1.897,5.615 7.729,22.837 7.729,22.837 0,0 19.018,-10.538 23.138,-12.818 0.358,4.068 1.852,21.525 1.852,21.525 0,0 19.663,-7.712 26.68,-10.461 -3.938,6.162 -14.557,22.759 -14.557,22.759 0,0 18.839,2.413 23.776,3.03 -3.622,3.987 -16.815,18.4 -16.815,18.4 0,0 16.64,4.882 23.499,6.898 -7.459,2.707 -25.365,9.195 -25.365,9.195 0,0 8.946,13.701 11.39,17.44 -5.152,1.02 -25.488,5.032 -25.488,5.032 0,0 6.098,15.812 8.374,21.704 -6.354,-2.206 -24.225,-8.395 -24.225,-8.395 0,0 -6.365,17.345 -7.887,21.497 -3.5,-2.044 -19.502,-11.422 -19.502,-11.422 0,0 -10.415,18.078 -13.799,23.948 -1.897,-5.611 -7.722,-22.826 -7.722,-22.826 0,0 -19.018,10.521 -23.135,12.796 -0.358,-4.061 -1.848,-21.49 -1.848,-21.49 0,0 -19.649,7.691 -26.68,10.447 3.963,-6.172 14.581,-22.76 14.581,-22.76 0,0 -18.842,-2.413 -23.777,-3.044 3.623,-3.97 16.794,-18.383 16.794,-18.383 0,0 -16.622,-4.878 -23.489,-6.901 7.463,-2.704 25.376,-9.174 25.376,-9.174 0,0 -8.943,-13.714 -11.391,-17.456 5.144,-1.013 25.474,-5.046 25.474,-5.046 0,0 -6.091,-15.788 -8.367,-21.697 6.361,2.199 24.197,8.385 24.197,8.385 0,0 6.365,-17.345 7.89,-21.494 3.503,2.041 19.526,11.404 19.526,11.404 z"
       id="path4080"
       style="fill:#000000;stroke:#000000;stroke-width:7.30926;stroke-linecap:square;stroke-linejoin:round;stroke-miterlimit:4;stroke-dasharray:none;paint-order:markers fill stroke" /></g><text
     xml:space="preserve"
     id="text4086"
     style="font-size:40px;line-height:1.25;font-family:Imaki;-inkscape-font-specification:Imaki;letter-spacing:0px;word-spacing:0px;white-space:pre;shape-inside:url(#rect4090);fill:#000000;stroke:#000000;stroke-width:6.93969;stroke-linecap:square;stroke-linejoin:round;stroke-miterlimit:4;stroke-dasharray:none;paint-order:markers fill stroke"
     transform="matrix(1.2501531,-0.13948343,-0.20836478,1.6841975,-128.66325,-173.54476)"><tspan
       x="198.67188"
       y="195.36328"
       id="tspan5228">Python</tspan></text></g><g
   id="g4076"
   transform="translate(-1.8987537,-3.0519487)"><g
     id="g4069"
     transform="matrix(1.6851646,0,0,1.1107365,-55.772935,-10.709953)"><path
       fill="#ffcb04"
       d="m 134.544,47.627 c 0,0 9.851,-17.103 12.561,-21.827 1.897,5.615 7.729,22.837 7.729,22.837 0,0 19.018,-10.538 23.138,-12.818 0.358,4.068 1.852,21.525 1.852,21.525 0,0 19.663,-7.712 26.68,-10.461 -3.938,6.162 -14.557,22.759 -14.557,22.759 0,0 18.839,2.413 23.776,3.03 -3.622,3.987 -16.815,18.4 -16.815,18.4 0,0 16.64,4.882 23.499,6.898 -7.459,2.707 -25.365,9.195 -25.365,9.195 0,0 8.946,13.701 11.39,17.44 -5.152,1.02 -25.488,5.032 -25.488,5.032 0,0 6.098,15.812 8.374,21.704 -6.354,-2.206 -24.225,-8.395 -24.225,-8.395 0,0 -6.365,17.345 -7.887,21.497 -3.5,-2.044 -19.502,-11.422 -19.502,-11.422 0,0 -10.415,18.078 -13.799,23.948 -1.897,-5.611 -7.722,-22.826 -7.722,-22.826 0,0 -19.018,10.521 -23.135,12.796 -0.358,-4.061 -1.848,-21.49 -1.848,-21.49 0,0 -19.649,7.691 -26.68,10.447 3.963,-6.172 14.581,-22.76 14.581,-22.76 0,0 -18.842,-2.413 -23.777,-3.044 3.623,-3.97 16.794,-18.383 16.794,-18.383 0,0 -16.622,-4.878 -23.489,-6.901 7.463,-2.704 25.376,-9.174 25.376,-9.174 0,0 -8.943,-13.714 -11.391,-17.456 5.144,-1.013 25.474,-5.046 25.474,-5.046 0,0 -6.091,-15.788 -8.367,-21.697 6.361,2.199 24.197,8.385 24.197,8.385 0,0 6.365,-17.345 7.89,-21.494 3.503,2.041 19.526,11.404 19.526,11.404 l 1.21,-2.103"
       id="path4" /><path
       fill="#ffffff"
       d="m 145.98,20.2 -9.753,16.952 c 0,0 -2.571,4.45 -3.998,6.94 -3.019,-1.771 -20.301,-11.874 -20.301,-11.874 0,0 -6.87,18.744 -8.213,22.384 -3.545,-1.241 -29.345,-10.17 -29.345,-10.17 0,0 8.522,22.076 9.995,25.919 -4.457,0.887 -26.677,5.278 -26.677,5.278 0,0 9.826,15.016 11.958,18.292 -4.517,1.638 -31.769,11.509 -31.769,11.509 0,0 24.888,7.305 29.163,8.564 -3.24,3.538 -17.555,19.204 -17.555,19.204 0,0 20.845,2.676 25.07,3.209 -2.563,3.998 -17.426,27.199 -17.426,27.199 0,0 28.381,-11.113 32.34,-12.663 0.312,3.595 1.918,22.262 1.918,22.262 0,0 20.701,-11.45 24.166,-13.365 1.115,3.275 9.093,26.88 9.093,26.88 0,0 14.101,-24.481 16.153,-28.034 3.012,1.764 20.301,11.864 20.301,11.864 0,0 6.877,-18.727 8.213,-22.374 3.542,1.22 29.359,10.187 29.359,10.187 0,0 -8.511,-22.079 -9.998,-25.926 4.468,-0.891 26.673,-5.278 26.673,-5.278 0,0 -9.802,-15.006 -11.944,-18.292 4.517,-1.631 31.751,-11.517 31.751,-11.517 0,0 -24.883,-7.301 -29.154,-8.56 3.244,-3.545 17.573,-19.221 17.573,-19.221 0,0 -20.855,-2.662 -25.078,-3.198 2.553,-3.994 17.419,-27.206 17.419,-27.206 0,0 -28.392,11.138 -32.337,12.684 -0.319,-3.605 -1.936,-22.286 -1.936,-22.286 0,0 -20.701,11.471 -24.176,13.382 -1.112,-3.303 -9.093,-26.901 -9.093,-26.901 L 145.98,20.2 m -11.436,27.427 c 0,0 9.851,-17.103 12.561,-21.827 1.897,5.615 7.729,22.837 7.729,22.837 0,0 19.018,-10.538 23.138,-12.818 0.358,4.068 1.852,21.525 1.852,21.525 0,0 19.663,-7.712 26.68,-10.461 -3.938,6.162 -14.557,22.759 -14.557,22.759 0,0 18.839,2.413 23.776,3.03 -3.622,3.987 -16.815,18.4 -16.815,18.4 0,0 16.64,4.882 23.499,6.898 -7.459,2.707 -25.365,9.195 -25.365,9.195 0,0 8.946,13.701 11.39,17.44 -5.152,1.02 -25.488,5.032 -25.488,5.032 0,0 6.098,15.812 8.374,21.704 -6.354,-2.206 -24.225,-8.395 -24.225,-8.395 0,0 -6.365,17.345 -7.887,21.497 -3.5,-2.044 -19.502,-11.422 -19.502,-11.422 0,0 -10.415,18.078 -13.799,23.948 -1.897,-5.611 -7.722,-22.826 -7.722,-22.826 0,0 -19.018,10.521 -23.135,12.796 -0.358,-4.061 -1.848,-21.49 -1.848,-21.49 0,0 -19.649,7.691 -26.68,10.447 3.963,-6.172 14.581,-22.76 14.581,-22.76 0,0 -18.842,-2.413 -23.777,-3.044 3.623,-3.97 16.794,-18.383 16.794,-18.383 0,0 -16.622,-4.878 -23.489,-6.901 7.463,-2.704 25.376,-9.174 25.376,-9.174 0,0 -8.943,-13.714 -11.391,-17.456 5.144,-1.013 25.474,-5.046 25.474,-5.046 0,0 -6.091,-15.788 -8.367,-21.697 6.361,2.199 24.197,8.385 24.197,8.385 0,0 6.365,-17.345 7.89,-21.494 3.503,2.041 19.526,11.404 19.526,11.404 z"
       id="path6" /></g><text
     xml:space="preserve"
     id="text2709"
     style="font-size:40px;line-height:1.25;font-family:Imaki;-inkscape-font-specification:Imaki;letter-spacing:0px;word-spacing:0px;white-space:pre;shape-inside:url(#rect2711-3)"
     transform="matrix(1.2501531,-0.13948343,-0.20836478,1.6841975,-128.66325,-173.54476)"><tspan
       x="198.67188"
       y="195.36328"
       id="tspan5230">Python</tspan></text></g></svg>
